<?xml version="1.0" encoding="UTF-8"?><svg id="a" xmlns="http://www.w3.org/2000/svg" viewBox="0 0 75.77 76.25"><path d="m70.17,0H5.6C2.51,0,0,2.45,0,5.46v65.33c0,3.01,2.51,5.46,5.6,5.46h64.57c3.09,0,5.6-2.45,5.6-5.46V5.46c0-3.01-2.51-5.46-5.6-5.46ZM22.97,63.83h-11.45V29.4h11.45v34.43Zm-5.72-39.13h-.08c-3.84,0-6.32-2.65-6.32-5.95s2.56-5.95,6.47-5.95,6.33,2.57,6.4,5.95c0,3.3-2.48,5.95-6.47,5.95Zm46.98,39.13h-11.44v-18.42c0-4.63-1.66-7.79-5.8-7.79-3.16,0-5.04,2.13-5.87,4.19-.3.74-.38,1.76-.38,2.79v19.23h-11.44s.15-31.2,0-34.43h11.44v4.89c1.51-2.35,4.23-5.7,10.32-5.7,7.53,0,13.17,4.92,13.17,15.5v19.74Z" style="fill:#fff;"/></svg>